<mxfile host="app.diagrams.net" modified="2024-04-16T06:29:34.259Z" agent="Mozilla/5.0 (Macintosh; Intel Mac OS X 10_15_7) AppleWebKit/537.36 (KHTML, like Gecko) Chrome/123.0.0.0 Safari/537.36" version="24.2.5" etag="gg6wM-vGMteKrTBV0lNX" type="github">
  <diagram name="Страница — 1" id="YVnf6Wt0-apJij2MY1EW">
    <mxGraphModel>
      <root>
        <mxCell id="0" />
        <mxCell id="1" parent="0" />
      </root>
    </mxGraphModel>
  </diagram>
</mxfile>
